<svg xmlns="http://www.w3.org/2000/svg" width="207" height="71" viewBox="0 0 207 71" fill="none">
<g clip-path="url(#clip0)">
<path fill-rule="evenodd" clip-rule="evenodd" d="M37.2502 1.22705L55.3035 14.3964L73.4385 27.5658L66.4949 48.833L59.633 70.1003H37.2502H14.9491L8.00554 48.833L1.14366 27.5658L19.1969 14.3964L37.2502 1.22705Z" fill="#009B3C"/>
<path fill-rule="evenodd" clip-rule="evenodd" d="M37.2502 1.22705L55.3035 14.3964L73.4385 27.5658L68.7822 41.7985H50.4022L44.1121 15.787L42.7234 10.0612L41.9882 15.8688L37.2502 52.9229L32.5123 15.8688L31.7771 10.0612L30.3883 15.787L24.0983 41.7985H5.71825L1.14366 27.5658L19.1969 14.3964L37.2502 1.22705Z" fill="#1F1A17"/>
<path fill-rule="evenodd" clip-rule="evenodd" d="M7.84213 41.7984H24.0983L30.3883 15.7868L31.777 10.061L32.5122 15.8686L37.2502 52.9228L41.9882 15.8686L42.7233 10.061L44.1121 15.7868L50.4021 41.7984H66.6582L65.923 43.9251H49.5852H48.6866L48.5233 43.1071L43.3769 22.0034L38.3121 61.5933L37.4953 67.9735H37.2502H37.0051L36.1882 61.5933L31.1235 22.0034L25.9771 43.1071L25.8137 43.9251H24.9151H8.57733L7.84213 41.7984Z" fill="#FEFEFE"/>
<path fill-rule="evenodd" clip-rule="evenodd" d="M38.1488 0.654378L55.8753 13.5783L73.6018 26.5023L74.5004 27.1567L74.1736 28.22L67.3934 49.1601L60.6133 70.1002L60.2865 71.1636H59.2245H37.2502H15.2758H14.2139L13.8871 69.9366L7.10695 48.9965L0.326756 28.1382L0 27.0749L0.898579 26.4205L18.6251 13.4965L36.3516 0.654378L37.2502 0L38.1488 0.654378ZM54.1598 15.9505L37.2502 3.68088L20.3406 15.9505L3.43094 28.22L9.88437 48.0968L16.3378 67.9735H37.2502H58.1626L64.616 48.0968L71.0695 28.22L54.1598 15.9505Z" fill="#009B3C"/>
<path fill-rule="evenodd" clip-rule="evenodd" d="M86.2636 44.9067V55.6221H91.2466V47.0334H104.235V44.9067H86.2636ZM112.404 52.432H121.717C126.863 52.432 128.987 51.3687 128.987 48.6694C128.987 45.9701 126.945 44.9067 121.635 44.9067H107.339V55.6221H112.322V52.432H112.404ZM112.404 47.0334H120.736C123.35 47.0334 124.004 47.606 124.004 48.6694C124.004 49.8145 123.269 50.3053 120.736 50.3053H112.404V47.0334ZM149.654 44.9067L143.037 50.9597L136.012 44.9067H130.131L139.852 52.432C140.097 52.5956 140.178 52.7592 140.178 52.9228C140.178 53.25 139.443 53.5772 137.319 53.5772H136.339V55.6221H138.3C141.894 55.6221 143.037 55.3767 145.897 53.0046L155.618 44.9885H149.654V44.9067ZM157.987 44.9067V55.6221H162.97V47.0334H175.958V55.6221H180.941V44.9067H157.987ZM184.045 44.9067V55.6221H189.028V47.0334H202.017V55.6221H207V44.9067H184.045ZM86.5904 23.7212V40.9804H90.8382V27.1567H91.41L97.455 40.9804H103.5L109.545 27.1567H110.117V40.9804H114.365V23.7212H106.441L100.559 37.5449H100.314L94.5142 23.7212H86.5904ZM120.981 40.9804L123.269 36.6452H133.725L136.012 40.9804H140.995L131.764 23.7212H125.474L116.08 40.9804H120.981ZM125.066 33.3733L128.579 26.9931H128.824L132.173 33.3733H125.066ZM146.795 23.7212H142.547V40.9804H146.795V33.6187H149.409L157.578 40.9804H163.786L152.922 31.8191L163.378 23.7212H157.006L149.246 30.1832H146.713V23.7212H146.795ZM169.831 35.909H177.755C182.085 35.909 183.964 34.1913 183.964 29.7742C183.964 25.439 182.167 23.7212 177.755 23.7212H165.665V40.9804H169.913V35.909H169.831ZM169.831 27.1567H176.938C179.144 27.1567 179.716 28.0565 179.716 29.7742C179.716 31.6555 179.144 32.4735 176.938 32.4735H169.831V27.1567ZM190.254 34.682V30.1014C190.254 27.6475 190.989 26.9931 193.685 26.9931H199.158C201.69 26.9931 202.589 27.5657 202.589 30.1014V34.682C202.589 37.0542 202.017 37.6267 199.24 37.6267H193.603C190.989 37.5449 190.254 36.9724 190.254 34.682ZM206.755 35.091V29.6924C206.755 24.8664 204.713 23.5576 200.383 23.5576H192.623C187.803 23.5576 186.088 24.9482 186.088 29.6924V35.091C186.088 39.2627 187.885 40.9804 192.623 40.9804H200.383C205.285 40.9804 206.755 39.4263 206.755 35.091Z" fill="#1F1A17"/>
</g>
<defs>
<clipPath id="clip0">
<rect width="207" height="71" fill="white"/>
</clipPath>
</defs>
</svg>